<?xml version="1.0" encoding="UTF-8" standalone="no"?>
<!DOCTYPE svg PUBLIC "-//W3C//DTD SVG 1.1//EN" "http://www.w3.org/Graphics/SVG/1.1/DTD/svg11.dtd">
<svg width="100%" height="100%" viewBox="0 0 32 32" version="1.1" xmlns="http://www.w3.org/2000/svg" xmlns:xlink="http://www.w3.org/1999/xlink" xml:space="preserve" xmlns:serif="http://www.serif.com/" style="fill-rule:evenodd;clip-rule:evenodd;stroke-linejoin:round;stroke-miterlimit:2;">
    <g transform="matrix(1.3169,0,0,1.3169,-5.07173,-5.06557)">
        <path d="M12.264,17.504C11.556,17.749 10.664,17.025 10.271,15.889C9.878,14.752 10.133,13.632 10.841,13.387C11.548,13.143 12.44,13.866 12.833,15.003C13.226,16.14 12.971,17.26 12.264,17.504ZM17.557,14.837C16.771,14.722 16.284,13.606 16.468,12.343C16.653,11.08 17.439,10.15 18.225,10.265C19.011,10.379 19.498,11.496 19.314,12.759C19.129,14.021 18.343,14.952 17.557,14.837ZM19.708,17.495C19.004,17.24 18.765,16.117 19.173,14.986C19.581,13.854 20.483,13.143 21.187,13.397C21.891,13.651 22.131,14.775 21.723,15.906C21.314,17.037 20.413,17.749 19.708,17.495ZM16,21.389C15.099,21.389 15.051,21.72 13.758,21.72C12.576,21.72 12.097,21.057 12.04,20.303C11.966,19.326 13.014,18.63 13.646,17.905C14.306,17.147 14.958,15.76 16,15.76C17.041,15.76 17.693,17.147 18.353,17.905C18.985,18.63 20.034,19.326 19.96,20.303C19.903,21.057 19.424,21.72 18.241,21.72C16.949,21.72 16.9,21.389 16,21.389ZM14.375,14.846C13.586,14.938 12.828,13.984 12.681,12.717C12.533,11.449 13.054,10.347 13.842,10.256C14.631,10.164 15.39,11.117 15.537,12.385C15.684,13.653 15.164,14.754 14.375,14.846Z"/>
    </g>
    <g transform="matrix(0.581005,0,0,0.581005,-46.7628,-144.073)">
        <path d="M108.503,248.87C94.17,248.87 82.549,260.49 82.549,274.825C82.549,279.729 83.911,284.314 86.275,288.228L81.589,302.151L95.959,297.552C99.678,299.607 103.954,300.78 108.503,300.78C122.84,300.78 134.46,289.159 134.46,274.825C134.46,260.49 122.84,248.87 108.503,248.87ZM108.503,296.432C104.117,296.432 100.029,295.115 96.617,292.858L88.314,295.517L91.013,287.492C88.426,283.931 86.899,279.555 86.899,274.825C86.899,262.909 96.591,253.217 108.503,253.217C120.419,253.217 130.11,262.909 130.11,274.825C130.11,286.738 120.419,296.432 108.503,296.432Z"/>
    </g>
</svg>
